<svg xmlns="http://www.w3.org/2000/svg" height="100" width="100" fill="#c12127" viewBox="0 0 67 67"><path d="M17.5 49.9c-.3 0-.5.2-.5.5v12.1c0 .3.2.5.5.5s.5-.2.5-.5V50.4c0-.3-.2-.5-.5-.5zM17.5 44.8c.3 0 .5-.2.5-.5v-1.9c0-.3-.2-.5-.5-.5s-.5.3-.5.5v1.9c0 .3.2.5.5.5zM17.5 48.4c.3 0 .5-.2.5-.5v-1.5c0-.3-.2-.5-.5-.5s-.5.2-.5.4v1.5c0 .3.2.6.5.6z"/><path d="M60.8 40.8L46.2 30.2V14.4c0-4.2-3.4-7.7-7.7-7.7H23.9c-.4-1-1.3-1.8-2.4-2V3.5c0-1.7-1.3-3-3-3h-2.8c-1.7 0-3 1.3-3 3v1.3c-1.4.2-2.5 1.5-2.5 3v2H8.8c-1.7 0-3 1.3-3 3V28c0 1.7 1.3 3 3 3h4v32.5c0 1.7 1.3 3 3 3h2.7c1.7 0 3-1.3 3-3V31h2.6c1.7 0 3-1.3 3-3V12.7c0-1.6-1.3-3-2.9-3v-1h14.4c3.1 0 5.7 2.5 5.7 5.7v15.8L29.6 40.8c-.4.3-.5.7-.4 1.1L35 59.6c.1.4.5.7 1 .7h18.6c.4 0 .8-.3 1-.7L61.3 42c0-.5-.1-.9-.5-1.2zM14.7 3.5c0-.6.4-1 1-1h2.8c.6 0 1 .4 1 1v1.3h-4.8zm4.8 60c0 .6-.4 1-1 1h-2.7c-.6 0-1-.4-1-1V31h4.7zm32.6-19.8L45.7 39v-6.7l12.8 9.3zm-10.8 9.1h7.9l4 5.5H37.3zm-3-9.1l-6.4-2.1 12.8-9.3V39zm-6.7-1.1l6.4 2.1 2.4 7.5-4 5.5zM54 57.7l-4-5.5 2.4-7.5 6.4-2.1z"/><path d="M8.463 28.5V12.303h16.051v16.195zm3.01-13.16v10.123h5.016v-8.098h3.01v8.098h2.006V15.34z"/><path d="M11.473 15.34h10.032v10.123h-2.007v-8.098h-3.01v8.098h-5.015z" fill="#fff"/><path fill-rule="evenodd" d="M45.511 41.38a.795.795 0 00-.795 0l-3.749 2.164a.795.795 0 00-.397.688v4.329c0 .284.151.546.397.688l3.75 2.164a.795.795 0 00.794 0l3.75-2.163a.795.795 0 00.397-.69v-4.328a.795.795 0 00-.398-.688l-3.749-2.164zm-.454.59a.114.114 0 01.114 0l3.464 2-3.521 2.033-3.522-2.033zm-3.806 2.591v4c0 .041.022.078.057.098l3.465 2v-4.065zm4.204 6.099l3.464-2a.114.114 0 00.057-.099v-4l-3.521 2.033v4.065z" fill="#fff"/></svg>